<svg id="Layer_1" data-name="Layer 1" xmlns="http://www.w3.org/2000/svg" viewBox="0 0 615.43 292.01"><defs><style>.cls-1{fill:#49bce2;}.cls-2{fill:#ffc10e;}</style></defs><title>logo_2</title><path class="cls-1" d="M308,49a37.47,37.47,0,1,0,37.47,37.47A37.47,37.47,0,0,0,308,49ZM331.5,94H315.44v16.15h-15V94H284.42V79h16.06V62.85h15V79H331.5Z"/><path class="cls-1" d="M308,148.15a61.66,61.66,0,0,1-61.63-60h0V25.88a86.46,86.46,0,1,0,127.37,116.8l-18.84-16.12A61.52,61.52,0,0,1,308,148.15Z"/><path class="cls-1" d="M308,0a86.13,86.13,0,0,0-34.07,7l-.41.17a4.45,4.45,0,0,0-2.52,4v26a61.67,61.67,0,0,1,84.62,10.15l19.15-15.76A86.3,86.3,0,0,0,308,0Z"/><path class="cls-2" d="M45,207.72a19.3,19.3,0,0,1,8.66,5.89,14,14,0,0,1,3.06,9,14.36,14.36,0,0,1-3.11,9.19,15.6,15.6,0,0,1-8.47,5.36A16.47,16.47,0,0,1,55.28,243,17.19,17.19,0,0,1,59,254.1,16.18,16.18,0,0,1,55.81,264a19.63,19.63,0,0,1-9,6.51,38,38,0,0,1-13.69,2.25H0V205.66H31.88A38.13,38.13,0,0,1,45,207.72ZM36.66,230.6a6.09,6.09,0,0,0,2.11-4.93,5.71,5.71,0,0,0-2.11-4.74,8.61,8.61,0,0,0-5.74-1.58H17.52v13h13.4A8.65,8.65,0,0,0,36.66,230.6Zm1.53,26.66a6.22,6.22,0,0,0,2.68-5.36,5.83,5.83,0,0,0-2.68-5,12.09,12.09,0,0,0-7.28-1.77H17.52v14.07h13.4A12.3,12.3,0,0,0,38.2,257.26Z"/><path class="cls-2" d="M106.83,223.7a24.16,24.16,0,0,1,10,9.29,29,29,0,0,1,0,27.76,24.15,24.15,0,0,1-10,9.29A32,32,0,0,1,92,273.34,32,32,0,0,1,77.16,270a23.81,23.81,0,0,1-9.91-9.29,29.32,29.32,0,0,1,0-27.76,23.82,23.82,0,0,1,9.91-9.29A32,32,0,0,1,92,220.4,32,32,0,0,1,106.83,223.7ZM84,237.73A13.69,13.69,0,0,0,80.89,247q0,5.84,3.06,9.38a10.11,10.11,0,0,0,8,3.54,10.22,10.22,0,0,0,8.14-3.54,13.84,13.84,0,0,0,3.06-9.38,13.56,13.56,0,0,0-3.11-9.29A10.27,10.27,0,0,0,92,234.19,10.12,10.12,0,0,0,84,237.73Z"/><path class="cls-2" d="M167.33,223.7a24.16,24.16,0,0,1,10,9.29,29,29,0,0,1,0,27.76,24.15,24.15,0,0,1-10,9.29,35,35,0,0,1-29.68,0,23.81,23.81,0,0,1-9.91-9.29,29.32,29.32,0,0,1,0-27.76,23.82,23.82,0,0,1,9.91-9.29,35,35,0,0,1,29.68,0Zm-22.88,14a13.69,13.69,0,0,0-3.06,9.29q0,5.84,3.06,9.38a10.11,10.11,0,0,0,8,3.54,10.22,10.22,0,0,0,8.14-3.54,13.84,13.84,0,0,0,3.06-9.38,13.56,13.56,0,0,0-3.11-9.29,10.27,10.27,0,0,0-8.09-3.54A10.12,10.12,0,0,0,144.45,237.73Z"/><path class="cls-2" d="M222.66,272.76l-10.91-19.53-5.27,5.46v14.07h-17v-71h17v36.76L223,221h19.34l-19,20,19.34,31.78Z"/><path class="cls-2" d="M263.78,199.68a9.68,9.68,0,0,1,0,13.07,9.37,9.37,0,0,1-12.92,0,9.68,9.68,0,0,1,0-13.07,9.49,9.49,0,0,1,12.92,0ZM249,221h16.94v51.79H249Z"/><path class="cls-2" d="M326.19,225.67q5.12,5.36,5.12,14.45v32.64H314.37V245a9.71,9.71,0,0,0-2.39-6.94,8.4,8.4,0,0,0-6.41-2.54,9.83,9.83,0,0,0-6.94,2.78,11.28,11.28,0,0,0-3.21,7.08v27.38h-17V221h17v8.42a18.41,18.41,0,0,1,7.13-6.8,21.11,21.11,0,0,1,10-2.3Q321.07,220.31,326.19,225.67Z"/><path class="cls-2" d="M391.91,221v47.19a22.46,22.46,0,0,1-3.54,12.59,23,23,0,0,1-9.91,8.33A34.92,34.92,0,0,1,363.76,292a43.26,43.26,0,0,1-12.54-1.82,39.75,39.75,0,0,1-10.63-4.88l5.94-11.77a30.49,30.49,0,0,0,7.66,3.73,26.76,26.76,0,0,0,8.33,1.34q5.74,0,9.09-2.68a8.83,8.83,0,0,0,3.35-7.28V263.1q-5.17,6.8-14.74,6.8A20.78,20.78,0,0,1,340.93,258a29,29,0,0,1-2.82-13.07,28.73,28.73,0,0,1,2.73-12.83,20.44,20.44,0,0,1,7.71-8.62,21.11,21.11,0,0,1,11.3-3.06,20.61,20.61,0,0,1,8.66,1.77,16.91,16.91,0,0,1,6.46,5.12V221ZM372.09,254.1a12.92,12.92,0,0,0,2.87-8.71,13.07,13.07,0,0,0-2.87-8.81,10.22,10.22,0,0,0-15.17,0,13,13,0,0,0-2.92,8.76,12.77,12.77,0,0,0,2.92,8.71,9.61,9.61,0,0,0,7.61,3.35A9.48,9.48,0,0,0,372.09,254.1Z"/><path class="cls-2" d="M444.56,221.89a18.55,18.55,0,0,0-8.9-2.44,17.42,17.42,0,0,0-9.24,2.54,18,18,0,0,0-6.56,7,21.71,21.71,0,0,0,0,19.82,18,18,0,0,0,6.56,7,17.4,17.4,0,0,0,9.24,2.54,20.32,20.32,0,0,0,8.62-2.11,27.28,27.28,0,0,0,8-5.74l10.24,11a41,41,0,0,1-13,9.14,36,36,0,0,1-32.88-1.2,33.57,33.57,0,0,1-12.64-12.54,34.91,34.91,0,0,1-4.6-17.81,33.45,33.45,0,0,1,17.57-30,38.15,38.15,0,0,1,33.08-1.39,36.58,36.58,0,0,1,12.35,8.47l-10.15,12.25A25,25,0,0,0,444.56,221.89Z"/><path class="cls-2" d="M508.89,225.23q5.94,4.93,6,13.83v33.7H498.16v-5.84q-5.17,6.61-15.6,6.61-8.23,0-13-4.45a15.33,15.33,0,0,1-4.74-11.73q0-7.37,5.12-11.49t14.69-4.21h13.5v-.58a6.91,6.91,0,0,0-2.54-5.74q-2.54-2-7.32-2a29.55,29.55,0,0,0-7.32,1.05,43.55,43.55,0,0,0-8.18,3.06L468.11,226a67.42,67.42,0,0,1,12.11-4.26,51.44,51.44,0,0,1,12-1.39Q502.95,220.31,508.89,225.23Zm-14.36,34.85a8.09,8.09,0,0,0,3.64-4.83v-4.5H488q-7.18,0-7.18,5.36a5.29,5.29,0,0,0,1.87,4.26,7.68,7.68,0,0,0,5.12,1.58A12,12,0,0,0,494.53,260.08Z"/><path class="cls-2" d="M549.81,222.7a19.5,19.5,0,0,1,9.72-2.39v15.6a25.7,25.7,0,0,0-2.58-.1q-6,0-9.76,2.82a10.82,10.82,0,0,0-4.31,7.71v26.42h-17V221h17v8.62A18.66,18.66,0,0,1,549.81,222.7Z"/><path class="cls-2" d="M608.63,227.87q6.8,7.47,6.8,20.49,0,2-.1,3.06h-36a12.43,12.43,0,0,0,4.31,6.75,11.91,11.91,0,0,0,7.47,2.35,16.15,16.15,0,0,0,6.46-1.34,18.25,18.25,0,0,0,5.7-3.93l8.9,8.9a26.24,26.24,0,0,1-9.72,6.84,33.52,33.52,0,0,1-12.87,2.34A31,31,0,0,1,575,270.08a22.62,22.62,0,0,1-9.53-9.19,27.88,27.88,0,0,1-3.3-13.79,28.58,28.58,0,0,1,3.35-14A23.13,23.13,0,0,1,575,223.7a29.39,29.39,0,0,1,14.17-3.3Q601.84,220.4,608.63,227.87Zm-9.76,14.45a10,10,0,0,0-2.63-7.23,10,10,0,0,0-13.69,0,13.34,13.34,0,0,0-3.59,7.28Z"/></svg>